<?xml version="1.0" encoding="utf-8"?>
<!-- Generator: Adobe Illustrator 24.0.2, SVG Export Plug-In . SVG Version: 6.00 Build 0)  -->
<svg version="1.1" id="Capa_1" xmlns="http://www.w3.org/2000/svg" xmlns:xlink="http://www.w3.org/1999/xlink" x="0px" y="0px"
	 viewBox="0 0 256 256" style="enable-background:new 0 0 256 256;" xml:space="preserve">
<style type="text/css">
	.st0{fill:#FFCC99;}
</style>
<path class="st0" d="M165.58,41.25c0.44,0,0.89,0,1.33,0c0.15,0.05,0.29,0.13,0.44,0.15c7.51,0.91,15.01,1.84,22.53,2.71
	c2.18,0.25,4.19,0.72,6.13,1.93c7.7,4.82,15.49,9.47,23.25,14.2c0.48,0.29,0.93,0.66,1.34,1.05c5.62,5.35,11.23,10.7,16.82,16.07
	c0.4,0.38,0.73,0.87,0.96,1.38c3.04,6.78,6.06,13.57,9.06,20.37c0.22,0.51,0.34,1.08,0.39,1.64c0.32,4.29,0.54,8.59,0.93,12.88
	c0.37,3.96,0.5,7.88-0.94,11.68c-0.18,0.47-0.25,0.98-0.39,1.47c-2.85,10.49-4.96,21.19-9.16,31.29c-0.15,0.36-0.16,0.8-0.17,1.21
	c-0.05,4.27-0.06,8.55-0.13,12.82c-0.02,1.29-0.23,2.58-0.29,3.87c-0.06,1.25-0.28,2.55-0.03,3.74c0.72,3.46,1.67,6.88,2.49,10.33
	c0.54,2.26,1.34,4.48,1.02,6.89c-0.22,1.66-0.26,3.34-0.31,5.02c-0.02,0.63-0.26,0.95-0.78,1.24c-3.81,2.13-7.6,4.3-11.41,6.43
	c-0.57,0.31-1.22,0.54-1.85,0.65c-4.45,0.79-8.91,1.57-13.37,2.31c-1.85,0.31-3.66,1-5.61,0.56c-2.42-0.55-4.89-0.71-7.26-1.71
	c-2.35-0.99-3.29-3.08-4.97-4.86c2.14-0.4,3.29-1.9,4.68-3.08c0.38-0.32,0.76-0.71,1.22-0.88c2.6-0.99,5.21-1.96,8.07-1.87
	c0.93,0.03,1.86-0.13,2.82-0.21c-0.03-0.47-0.07-0.82-0.06-1.16c0.04-1.07-0.38-1.81-1.33-2.39c-1.16-0.71-2.19-1.62-3.32-2.37
	c-0.6-0.4-0.81-0.89-0.83-1.57c-0.05-1.33-0.22-2.65-0.23-3.98c-0.01-0.73,0.13-1.49,0.34-2.19c0.33-1.05,0.78-2.05,1.18-3.08
	c-0.26,0.05-0.37,0.16-0.47,0.27c-4.2,4.82-8.41,9.64-12.58,14.48c-0.33,0.38-0.55,0.94-0.6,1.44c-0.46,4.16-1.75,8-4.18,11.43
	c-0.02,0.03-0.02,0.07-0.04,0.08c-0.38,0.27-0.74,0.69-1.16,0.78c-1.48,0.32-2.99,0.53-4.49,0.79c-3.33,0.57-6.64,1.16-10.07,0.99
	c-4.68-0.24-9.37-0.32-14.05-0.29c-2.83,0.02-5.57-0.4-8.21-1.25c-0.95-0.31-2.12-1.31-2.34-2.2c-0.38-1.56-0.37-3.36,1.15-4.6
	c0.17-0.14,0.25-0.39,0.43-0.5c0.45-0.3,0.9-0.67,1.4-0.79c1.17-0.27,2.39-0.32,3.55-0.6c2.98-0.72,5.75-1.93,8.19-3.81
	c0.34-0.26,0.67-0.68,0.77-1.08c0.46-1.9,0.81-3.84,1.27-5.74c0.23-0.97,0.2-1.86-0.24-2.75c-0.91-1.86-1.08-3.82-1.05-5.89
	c0.08-5.18,0.95-10.27,1.39-15.4c0.28-3.28,1.19-6.3,2.56-9.25c0.61-1.32,1.17-2.67,1.67-4.03c0.78-2.13,1.49-4.29,2.26-6.5
	c-0.33-0.04-0.54-0.09-0.75-0.09c-2.91-0.05-5.84-0.3-8.73-0.07c-3.16,0.25-6.08-0.33-8.96-1.48c-0.38-0.15-0.77-0.28-1.16-0.4
	c-2.64-0.86-5.28-1.73-7.98-2.61c-0.01,0.26-0.03,0.41-0.02,0.56c0.35,5.34,0.69,10.67,1.06,16.01c0.12,1.69,0.02,3.32-0.42,4.97
	c-0.66,2.47-1.41,4.95-1.72,7.48c-0.56,4.55-0.82,9.14-1.24,13.71c-0.05,0.5-0.23,1.06-0.53,1.47c-3.06,4.27-6.1,8.56-9.28,12.74
	c-1.86,2.44-3.56,4.9-4.07,8c-0.01,0.06-0.02,0.14-0.06,0.18c-0.21,0.19-0.41,0.5-0.65,0.54c-1.28,0.22-2.56,0.46-3.85,0.52
	c-6.14,0.28-12.27,0.5-18.41,0.73c-0.44,0.02-0.89,0.01-1.32-0.06c-1.96-0.35-3.92-0.7-5.87-1.12c-0.4-0.09-0.87-0.39-1.09-0.73
	c-0.8-1.25-1.49-2.57-2.27-3.84c-0.31-0.5-0.22-0.79,0.13-1.23c2.07-2.61,4.67-4.63,7.29-6.62c0.33-0.25,0.8-0.37,1.22-0.44
	c3.12-0.51,6.25-1.01,9.38-1.45c0.64-0.09,0.9-0.34,1.07-0.95c0.87-3.24,1.81-6.46,2.66-9.7c0.13-0.49,0.09-1.14-0.12-1.6
	c-3.13-7.09-6.3-14.16-9.46-21.23c-0.5-1.12-1-2.24-1.51-3.39c-0.39,0.12-0.69,0.2-0.99,0.29c-6.01,1.76-12.01,3.55-18.03,5.26
	c-2.73,0.78-5.48,1.65-8.28,2.06c-4.6,0.67-9.24,1.06-13.88,1.45c-2.16,0.18-4.1,0.75-5.99,1.83c-3.92,2.26-7.94,4.33-11.9,6.52
	c-0.7,0.39-1.32,0.96-1.92,1.49c-2.53,2.25-4.28,4.95-4.72,8.37c-0.08,0.59-0.38,0.75-0.96,0.76c-2.94,0.03-5.89,0.11-8.83,0.17
	c-0.24,0-0.49-0.03-0.73-0.05c-0.03-0.18-0.07-0.31-0.07-0.43c-0.29-5.5-0.59-11-0.86-16.5c-0.02-0.35,0.12-0.75,0.3-1.05
	c1.74-2.94,3.5-5.87,5.28-8.79c0.2-0.33,0.52-0.65,0.86-0.84c10.96-6,21.92-11.99,32.87-18c0.34-0.19,0.66-0.67,0.72-1.06
	c0.49-2.93,0.87-5.88,1.39-8.81c0.33-1.85,0.84-3.68,1.29-5.6c-0.25,0.02-0.4,0.01-0.55,0.04c-4.05,0.89-8.1,1.78-12.13,2.72
	c-0.38,0.09-0.79,0.49-0.98,0.86c-2.02,3.9-4.01,7.82-5.98,11.75c-0.28,0.55-0.6,0.76-1.23,0.78c-3.73,0.13-7.46,0.33-11.2,0.47
	c-0.66,0.02-0.91,0.26-1.06,0.9c-0.57,2.46-1.18,4.92-1.84,7.36c-0.13,0.48-0.43,0.98-0.79,1.33c-1.68,1.63-3.51,3.12-5.1,4.83
	c-1.46,1.59-3.34,2.04-5.31,2.54c0-1.58,0-3.11,0-4.72c-2.72,0.67-5.35,1.33-8,1.96c-0.32,0.08-0.69,0.1-1.01,0.03
	c-1.05-0.24-2.08-0.57-3.13-0.78c-0.57-0.12-0.68-0.39-0.66-0.92c0.19-5.82,0.24-11.65,0.58-17.46c0.13-2.27-0.18-4.15-1.96-5.66
	c-0.55-0.47-0.66-1.08-0.67-1.78c-0.08-3.8-0.22-7.59-0.29-11.39c-0.04-2.05-0.09-4.12,0.1-6.16c0.28-3.09,0.74-6.16,1.16-9.23
	c0.09-0.65-0.06-1.13-0.47-1.64c-1.59-1.97-3.16-3.96-4.67-5.99c-0.38-0.52-0.6-1.23-0.68-1.88C6.1,92.96,6.08,91.6,6,90.25
	c0-0.89,0-1.77,0-2.66c0.46-0.5,0.92-1,1.38-1.51c2.53,1.76,4.98,3.46,7.5,5.21c0.69-1.97,1.33-3.78,1.98-5.6
	c0.09-0.26,0.22-0.67,0.4-0.71c1.44-0.31,2.77-1.24,4.38-0.55c2.49,1.07,5.04,2.01,7.61,3.02c1.86-2.46,3.69-4.88,5.53-7.29
	c0.3-0.4,0.65-0.78,1.03-1.11c5.72-4.89,11.46-9.78,17.19-14.66c0.33-0.28,0.71-0.54,1.11-0.69c14.14-5.5,28.21-11.21,42.86-15.29
	c0.48-0.13,0.99-0.22,1.48-0.18c7.41,0.55,14.83,1.13,22.24,1.68c1.22,0.09,2.5,0.28,3.66,0.02c2.83-0.65,5.61-1.55,8.41-2.33
	c3.29-0.92,6.54-2.04,9.88-2.68c5.4-1.03,10.87-1.72,16.31-2.57C161.17,42.01,163.37,41.62,165.58,41.25z"/>
</svg>
